<svg xmlns="http://www.w3.org/2000/svg" width="28" height="28" viewBox="0 0 28 28">
  <defs>
    <style>
      .a {
        fill: #fff;
      }

      .b {
        fill: #113d6b;
      }
    </style>
  </defs>
  <circle class="a" cx="14" cy="14" r="14"/>
  <path class="b" d="M15.65,7.16a3.47,3.47,0,0,0-3.47,3.46v1.94H10.32a.16.16,0,0,0-.16.17v2.54a.16.16,0,0,0,.16.17h1.86v5.23a.17.17,0,0,0,.17.17H14.9a.17.17,0,0,0,.17-.17V15.44h1.87a.15.15,0,0,0,.16-.12l.64-2.55a.11.11,0,0,0,0-.08.11.11,0,0,0,0-.07.1.1,0,0,0-.06,0H15.07V10.62a.57.57,0,0,1,0-.22.8.8,0,0,1,.13-.19.62.62,0,0,1,.19-.12.54.54,0,0,1,.22-.05h2a.17.17,0,0,0,.17-.16V7.32a.17.17,0,0,0-.17-.16Z"/>
</svg>
