<svg width="68" height="68" viewBox="0 0 68 68" fill="none" xmlns="http://www.w3.org/2000/svg">
<circle cx="34" cy="34" r="34" fill="#FF003C"/>
<g clip-path="url(#clip0_544_818)">
<path d="M43.8579 33.8384C44.1825 33.8979 44.4186 33.9425 44.6694 33.9722C45.422 34.0317 45.9531 33.6749 46.2482 33.0059C46.5433 32.3518 46.3515 31.5787 45.7318 31.1625C45.3629 30.9098 45.2449 30.657 45.2744 30.2111C45.54 25.8255 41.7627 22.5401 37.4394 23.3726C37.1443 23.4321 36.7164 23.328 36.4803 23.1496C35.1376 22.1387 33.4407 21.99 32.0537 22.8226C30.6963 23.6402 29.988 25.2011 30.1798 26.8067C30.2093 27.0297 30.047 27.3419 29.87 27.5054C29.5601 27.7879 29.1617 27.996 28.7338 28.1447C28.9256 27.8771 29.1175 27.5946 29.3093 27.327C30.1946 26.0188 29.9585 24.4876 28.7338 23.4915C27.4796 22.4806 27.4796 22.4806 28.1289 20.9643C30.6668 14.8989 37.0705 11.2121 43.371 12.1486C50.0551 13.1447 55.1899 18.2884 55.8981 24.889C56.4883 30.434 54.5407 34.9831 50.1731 38.4469C49.701 38.8186 49.3468 38.8929 48.9042 38.4469C48.6238 38.1793 48.2845 37.9712 47.9598 37.7334C46.5138 36.663 44.9793 36.886 43.8727 38.2983C43.7251 38.4915 43.5776 38.6848 43.312 39.0267C43.5038 38.0307 43.7399 37.2279 43.8136 36.3954C43.9169 35.5778 43.8579 34.7304 43.8579 33.8384ZM43.8431 19.0614C43.8284 20.444 44.9203 21.5738 46.2925 21.5887C47.6205 21.6035 48.7861 20.444 48.7861 19.0911C48.7861 17.7532 47.6943 16.6382 46.3663 16.6233C44.9793 16.5936 43.8579 17.6788 43.8431 19.0614Z" fill="white"/>
<path d="M25.5459 29.0069C26.623 29.8097 27.6116 30.5382 28.6592 31.3112C28.8363 31.1179 28.9838 30.9395 29.1314 30.7612C30.3708 29.334 31.9054 28.4718 33.7793 28.3082C34.4285 28.2488 34.7089 27.8474 35.0187 27.4014C35.9188 26.0634 37.1435 25.3053 38.7813 25.3053C40.5077 25.3053 41.8209 26.0486 42.6619 27.5501C43.5177 29.0813 43.4439 30.6274 42.5586 32.1437C42.4701 32.2924 42.3816 32.441 42.2635 32.5748C41.7619 33.1397 41.5995 33.7195 41.7323 34.5223C42.0422 36.4846 41.5553 38.2983 40.3158 39.9782C41.3635 40.7512 42.3521 41.4946 43.4439 42.3122C44.0784 41.45 44.6834 40.6323 45.2883 39.8147C45.8786 39.0119 46.1294 38.9524 46.9114 39.5322C49.7444 41.6284 52.5774 43.7245 55.3957 45.8355C56.1039 46.3558 56.1629 46.668 55.6465 47.3667C54.0529 49.5669 52.4446 51.7522 50.8363 53.9524C50.3199 54.6511 50.0248 54.6957 49.3165 54.1754C46.4688 52.0644 43.621 49.9534 40.7733 47.8276C40.0798 47.3072 40.0355 47.0248 40.5667 46.2963C41.1716 45.4638 41.7766 44.6165 42.4406 43.7096C41.4077 42.9366 40.4044 42.1933 39.3125 41.3756C38.4419 42.5501 37.6009 43.6948 36.6566 44.9881C36.3762 41.9851 35.2105 39.6214 32.9087 37.9118C30.5922 36.1873 28.01 35.7413 25.0442 36.3806C25.9738 35.0872 26.7853 33.9574 27.6706 32.7532C26.6378 31.9802 25.6492 31.2369 24.5573 30.4192C23.9376 31.2517 23.3474 32.0545 22.7424 32.8573C22.0784 33.7641 21.8718 33.8087 20.957 33.1249C18.183 31.0139 15.3943 28.9475 12.6056 26.8811C11.8826 26.3459 11.8236 26.0634 12.34 25.3499C13.9483 23.1348 15.5714 20.9197 17.1797 18.7047C17.6519 18.0654 17.947 18.006 18.5962 18.4817C21.4882 20.6224 24.3802 22.778 27.2722 24.9187C27.892 25.3796 27.951 25.7066 27.4936 26.3459C26.8739 27.2081 26.2394 28.0704 25.5459 29.0069ZM36.1106 36.4252C36.3319 36.2765 36.6123 36.1725 36.7598 35.9941C37.3353 35.2507 37.896 34.4926 38.4272 33.7344C38.7518 33.2735 38.6633 32.8424 38.2206 32.5005C37.6599 32.0694 37.0697 31.6531 36.509 31.222C35.9335 30.776 35.4761 30.895 35.063 31.4599C34.5908 32.1288 34.1039 32.7681 33.6317 33.4371C33.1891 34.0615 33.2333 34.4331 33.8236 34.894C34.3695 35.3251 34.9154 35.7265 35.4761 36.1279C35.6384 36.2468 35.8598 36.3062 36.1106 36.4252ZM14.0663 25.8404C15.114 26.6135 16.1173 27.3568 17.1797 28.1447C17.7109 27.4163 18.1978 26.7473 18.7142 26.0337C17.6371 25.2458 16.6485 24.5025 15.6156 23.7443C15.0845 24.4579 14.6123 25.0823 14.0663 25.8404ZM51.4117 50.3102C50.3494 49.5223 49.3608 48.779 48.2984 48.006C47.7672 48.7493 47.2803 49.4034 46.7639 50.117C47.841 50.9197 48.8443 51.6482 49.8625 52.4212C50.4084 51.6779 50.8953 51.0238 51.4117 50.3102ZM23.1851 29.3637C22.1374 28.5907 21.1341 27.8474 20.0865 27.0595C19.5553 27.7879 19.0684 28.4569 18.5519 29.1705C19.6291 29.9732 20.6324 30.7017 21.6653 31.4747C22.1817 30.7314 22.6539 30.0773 23.1851 29.3637ZM53.9496 46.8464C52.8873 46.0585 51.8987 45.3152 50.851 44.5273C50.3051 45.2557 49.8182 45.9247 49.3018 46.6383C50.3789 47.441 51.3822 48.1695 52.4151 48.9425C52.9463 48.2141 53.4037 47.5748 53.9496 46.8464ZM25.723 25.885C24.6458 25.0823 23.6572 24.3538 22.6244 23.5808C22.0932 24.3092 21.6063 24.9782 21.0898 25.6918C22.1522 26.4797 23.1555 27.223 24.2032 27.996C24.7196 27.2527 25.1918 26.6135 25.723 25.885ZM16.6042 22.3617C17.6814 23.1645 18.6847 23.893 19.7176 24.666C20.2488 23.9376 20.7209 23.2835 21.2521 22.5699C20.2045 21.7968 19.2012 21.0535 18.1535 20.2805C17.6223 20.9792 17.1502 21.6184 16.6042 22.3617ZM47.9443 45.6125C48.4755 44.8841 48.9476 44.2151 49.4788 43.5015C48.4017 42.6987 47.4131 41.9703 46.3802 41.1972C45.8343 41.9405 45.3621 42.5798 44.8309 43.2934C45.8933 44.0961 46.8819 44.8395 47.9443 45.6125ZM43.8276 44.6908C43.2964 45.4044 42.8095 46.0733 42.2783 46.7869C43.3407 47.5748 44.344 48.3181 45.3916 49.0912C45.9376 48.3479 46.4245 47.6789 46.9262 46.9802C45.8638 46.1923 44.8752 45.4638 43.8276 44.6908Z" fill="white"/>
<path d="M27.4185 51.3954C28.3923 50.0723 29.3661 48.7492 30.3252 47.3964C31.9483 45.0921 30.7089 42.104 27.9349 41.6878C26.4446 41.4648 25.3232 42.1486 24.4527 43.3231C23.5378 44.5718 22.623 45.8355 21.4869 47.1139C21.3246 46.445 21.0885 45.7909 21.0295 45.107C20.8376 42.6392 21.3393 40.4539 23.6411 39.0862C26.061 37.6442 28.5398 37.5698 31.004 38.9227C33.8517 40.4985 35.2387 43.888 34.4567 47.0545C33.8075 49.6858 31.9188 50.8751 29.4842 51.4103C28.8497 51.5441 28.171 51.5292 27.5217 51.5887C27.507 51.5292 27.4627 51.4697 27.4185 51.3954Z" fill="white"/>
<path d="M20.3354 56.9999C19.5829 56.8215 19.0665 56.5837 18.7714 55.989C18.432 55.3201 18.55 54.6957 18.9779 54.1159C20.4535 52.109 21.9142 50.0871 23.3897 48.0802C24.2751 46.8612 25.1604 45.6422 26.0604 44.438C26.7097 43.5609 27.654 43.3528 28.4213 43.9177C29.1885 44.4826 29.3213 45.4638 28.6869 46.3409C26.3408 49.5817 23.9799 52.8077 21.6044 56.0188C21.2945 56.435 20.7633 56.6877 20.3354 56.9999Z" fill="white"/>
<path d="M15.6142 36.663C15.8651 38.3726 16.7799 39.2794 18.462 39.5321C16.8094 39.8146 15.8356 40.6768 15.6142 42.4162C15.3339 40.766 14.4929 39.7849 12.7812 39.5767C14.4191 39.2497 15.3782 38.3726 15.6142 36.663Z" fill="white"/>
<path d="M36.0664 53.1645C37.6895 52.8672 38.6338 52.0198 38.8699 50.3994C39.1502 51.0238 39.3125 51.782 39.77 52.2428C40.2126 52.6888 40.9504 52.8523 41.7767 53.2389C40.0798 53.4619 39.0912 54.2944 38.8994 56.0188C38.6043 54.3687 37.7633 53.4024 36.0664 53.1645Z" fill="white"/>
<path d="M21.3984 15.6719C23.0363 15.3448 23.9806 14.4975 24.2019 12.7878C24.4823 14.4529 25.3528 15.4043 27.0497 15.6124C25.4414 15.9395 24.438 16.7571 24.2314 18.4816C23.8921 16.8909 23.1248 15.8503 21.3984 15.6719Z" fill="white"/>
</g>
<defs>
<clipPath id="clip0_544_818">
<rect width="44" height="45" fill="white" transform="translate(12 12)"/>
</clipPath>
</defs>
</svg>
