<svg width="69" height="68" viewBox="0 0 69 68" fill="none" xmlns="http://www.w3.org/2000/svg">
<circle cx="34.5" cy="34" r="34" fill="#6D8A0C"/>
<g clip-path="url(#clip0_465_850)">
<path d="M12.2122 55C11.8333 54.8113 11.5302 54.566 11.4987 54.1069C11.4608 53.5912 11.846 53.151 12.3764 53.1132C12.6984 53.0881 13.0267 53.1069 13.4056 53.1069C13.4056 52.8679 13.4056 52.6981 13.4056 52.522C13.4056 49.9874 13.4056 47.4528 13.4056 44.9183C13.4056 41.2139 15.4578 38.673 19.1201 37.8805C19.1201 32.7988 19.1201 27.7044 19.1201 22.5409C18.8612 22.5409 18.596 22.5409 18.3371 22.5409C16.5438 22.522 15.3504 21.3459 15.3378 19.5661C15.3315 18.3585 15.3252 17.151 15.3378 15.9434C15.3567 14.2139 16.5438 13.0315 18.2803 13.0126C19.4926 13 20.705 13 21.9173 13.0126C23.7043 13.0252 24.8851 14.2076 24.904 15.9937C24.904 16.2453 24.904 16.4969 24.904 16.7799C29.3872 16.7799 33.8199 16.7799 38.3346 16.7799C38.3346 16.5535 38.3346 16.3208 38.3346 16.0881C38.3409 14.1824 39.5028 13.0126 41.4034 13.0063C43.8281 13 46.2528 13 48.6775 13.0063C50.5466 13.0126 51.74 14.2013 51.74 16.0503C51.74 16.283 51.74 16.522 51.74 16.805C52.4219 16.805 53.0597 16.805 53.6974 16.805C54.5372 16.805 55.377 16.8239 56.2105 16.7988C56.7915 16.7799 57.2271 16.9686 57.4924 17.4969C57.4924 17.673 57.4924 17.8554 57.4924 18.0315C57.2271 18.5598 56.7915 18.7422 56.2105 18.7296C54.7709 18.7107 53.3375 18.7233 51.8978 18.7296C51.8663 18.7296 51.841 18.7422 51.74 18.761C51.74 19.0252 51.74 19.2956 51.74 19.5723C51.7274 20.7862 51.197 21.6918 50.1046 22.239C49.8709 22.3522 49.8204 22.4906 49.8267 22.7233C49.8267 23.1069 49.833 23.5032 49.7825 23.8805C49.5868 25.3019 48.4186 26.3208 46.979 26.3522C46.6696 26.3585 46.3538 26.3522 45.9939 26.3522C45.9939 27.3082 46.0002 28.2264 45.9939 29.1447C45.9813 29.8679 45.4193 30.3082 44.7753 30.1258C44.3396 30 44.0996 29.6667 44.0933 29.1447C44.087 28.239 44.0933 27.3271 44.0933 26.3585C43.7523 26.3585 43.4429 26.3648 43.1335 26.3585C41.5107 26.3333 40.2731 25.1006 40.2479 23.4843C40.2479 23.4717 40.2479 23.4528 40.2479 23.4403C40.3236 22.7925 40.2226 22.3208 39.5217 21.9497C38.7198 21.522 38.3662 20.6918 38.3409 19.761C38.3346 19.434 38.3409 19.1132 38.3409 18.761C33.8514 18.761 29.4061 18.761 24.8977 18.761C24.9545 19.8302 24.904 20.8805 24.0705 21.7044C23.2497 22.5157 22.2267 22.5975 21.1217 22.522C21.1217 27.6667 21.1217 32.761 21.1217 37.8554C21.5511 37.9749 21.9868 38.0692 22.4035 38.2201C25.0934 39.1887 26.8173 41.673 26.8299 44.5975C26.8425 47.239 26.8299 49.8742 26.8299 52.5157C26.8299 52.6918 26.8299 52.8679 26.8299 53.0943C27.0825 53.0943 27.2908 53.0943 27.4929 53.0943C28.219 53.0943 28.5916 53.3271 28.7116 53.8365C28.8189 54.2893 28.5916 54.673 28.017 55C22.7571 55 17.4847 55 12.2122 55ZM15.3567 53.0377C18.5644 53.0377 21.7153 53.0377 24.8724 53.0377C24.8851 52.9497 24.8977 52.8931 24.8977 52.8365C24.8977 49.9623 24.9356 47.0818 24.8724 44.2076C24.8093 41.3522 21.9363 39.2076 19.1327 39.8302C16.8659 40.3333 15.3504 42.195 15.3378 44.566C15.3188 47.2642 15.3315 49.9623 15.3315 52.6604C15.3378 52.7736 15.3504 52.8931 15.3567 53.0377ZM45.0089 14.9057C43.7839 14.9057 42.5526 14.8994 41.3276 14.9057C40.6204 14.912 40.2542 15.2767 40.2479 15.9874C40.2416 17.1635 40.2416 18.3396 40.2479 19.522C40.2479 20.2642 40.6141 20.6289 41.3466 20.6352C43.8029 20.6415 46.2528 20.6415 48.7091 20.6352C49.4668 20.6352 49.8331 20.2705 49.8394 19.5094C49.8457 18.3459 49.8457 17.1887 49.8394 16.0252C49.8331 15.2705 49.4605 14.9183 48.6965 14.912C47.4652 14.9057 46.2402 14.9057 45.0089 14.9057ZM20.143 14.9057C19.5305 14.9057 18.918 14.8994 18.2992 14.9057C17.6236 14.912 17.251 15.283 17.2447 15.9686C17.2384 17.1761 17.2384 18.3837 17.2447 19.5912C17.251 20.2453 17.6236 20.6227 18.2803 20.6289C19.5053 20.6352 20.7365 20.6415 21.9615 20.6289C22.6119 20.6227 22.9845 20.239 22.9908 19.5912C22.9971 18.3837 22.9971 17.1761 22.9908 15.9686C22.9845 15.2893 22.6119 14.9183 21.9363 14.9057C21.3427 14.8994 20.7429 14.9057 20.143 14.9057ZM42.1611 22.5975C42.1611 22.9057 42.1485 23.1887 42.1611 23.4654C42.199 24.0692 42.5526 24.4403 43.1588 24.4528C44.409 24.4717 45.6656 24.4654 46.9221 24.4528C47.3831 24.4466 47.7619 24.2264 47.8567 23.7673C47.9324 23.39 47.8693 22.9811 47.8693 22.5975C45.956 22.5975 44.0807 22.5975 42.1611 22.5975Z" fill="white"/>
<path d="M36.7429 55C35.7579 54.7736 34.836 54.4151 34.0909 53.6982C33.169 52.8114 32.6134 51.7359 32.6007 50.4529C32.5755 46.5346 32.5565 42.6101 32.6007 38.6919C32.626 36.0441 34.6718 34.0252 37.3744 34.0063C42.4764 33.9686 47.5784 33.9686 52.6867 34.0063C55.1429 34.0252 56.9236 35.5787 57.4287 38.0126C57.4414 38.0692 57.4729 38.1195 57.4982 38.1761C57.4982 42.4151 57.4982 46.6478 57.4982 50.8868C57.4666 50.9686 57.4287 51.0441 57.4098 51.1258C57.132 52.4529 56.45 53.5283 55.2819 54.2265C54.6946 54.5787 54.0064 54.7485 53.3623 55C47.8246 55 42.2869 55 36.7429 55ZM45.0274 53.1007C47.4963 53.1007 49.9652 53.1007 52.4404 53.1007C54.3852 53.1007 55.5913 51.912 55.5913 49.9875C55.5976 46.3334 55.5976 42.6793 55.5913 39.0252C55.5913 37.107 54.4105 35.9183 52.4909 35.9183C47.5215 35.912 42.5521 35.912 37.5764 35.9183C35.6821 35.9183 34.5014 37.107 34.495 38.9938C34.495 42.6353 34.495 46.2705 34.495 49.912C34.495 51.9371 35.6632 53.1007 37.7027 53.1007C40.1464 53.1007 42.5837 53.1007 45.0274 53.1007Z" fill="white"/>
<path d="M20.1381 41.6479C21.7356 41.6541 23.0111 42.9372 22.9985 44.5221C22.9858 46.0755 21.6977 47.3585 20.1317 47.3648C18.5595 47.3774 17.2461 46.0692 17.2461 44.4969C17.2461 42.9183 18.5405 41.6416 20.1381 41.6479ZM20.1317 45.4403C20.6495 45.434 21.0726 45.0252 21.0789 44.5095C21.0852 43.9875 20.6369 43.5409 20.1128 43.5472C19.6013 43.5535 19.172 43.9812 19.1657 44.4843C19.153 45.0126 19.595 45.4466 20.1317 45.4403Z" fill="white"/>
<path d="M46 44.4843C46 42.6667 46 40.8428 46 39.0252C46 38.1447 46.3283 37.8176 47.225 37.8176C48.3805 37.8176 49.5297 37.8113 50.6852 37.8176C52.4091 37.8239 53.6404 39.0189 53.653 40.7359C53.6719 43.239 53.6656 45.7484 53.653 48.2516C53.6404 49.9748 52.4406 51.1572 50.6979 51.1698C49.5171 51.1824 48.33 51.1761 47.1492 51.1698C46.3347 51.1635 46 50.8302 46 50.0252C46 48.1824 46 46.3333 46 44.4843ZM47.9322 49.2767C48.8793 49.2767 49.776 49.283 50.6726 49.2767C51.3798 49.2704 51.7461 48.8994 51.7524 48.1887C51.7587 45.7296 51.7587 43.2704 51.7524 40.805C51.7524 40.1069 51.3798 39.7359 50.6663 39.7233C49.8454 39.7107 49.0183 39.717 48.1974 39.7233C48.1153 39.7233 48.0269 39.7547 47.9322 39.7736C47.9322 42.9371 47.9322 46.0755 47.9322 49.2767Z" fill="white"/>
<path d="M43.4791 44.6541C44.0158 45.2516 44.1295 46.1384 44.0853 47.0692C44.06 47.6353 44.0979 48.2076 44.0221 48.7673C43.8453 50.1069 42.7151 51.1321 41.3575 51.1698C40.0441 51.2013 38.7244 51.1887 37.4047 51.1761C36.8175 51.1698 36.4133 50.7736 36.407 50.2453C36.4007 49.7044 36.8238 49.2893 37.43 49.283C38.6297 49.2705 39.8231 49.283 41.0228 49.2768C41.7995 49.2768 42.1405 48.9308 42.1531 48.1573C42.1594 47.5912 42.1657 47.0252 42.1468 46.4591C42.1278 45.8302 41.7932 45.4969 41.1617 45.4906C40.0252 45.478 38.8886 45.4906 37.7457 45.4843C37.5499 45.4843 37.3542 45.4717 37.1648 45.4403C36.6849 45.3459 36.3439 44.8994 36.3818 44.4403C36.426 43.9434 36.8301 43.5598 37.3352 43.5535C38.5476 43.5472 39.76 43.5535 40.9723 43.5472C41.8058 43.5472 42.1341 43.2139 42.1405 42.3774C42.1468 41.8994 42.1405 41.4214 42.1405 40.9434C42.1341 40.0441 41.8184 39.7233 40.9281 39.7233C39.76 39.717 38.5918 39.7296 37.4236 39.717C36.8301 39.7107 36.426 39.3397 36.4007 38.8113C36.3755 38.283 36.7796 37.8302 37.3479 37.8239C38.6928 37.8114 40.0441 37.7862 41.3891 37.8302C42.835 37.8805 43.9779 39.0692 44.06 40.5849C44.0979 41.283 44.1421 41.9937 44.0474 42.6856C43.9716 43.3145 43.7064 43.9183 43.4791 44.6541Z" fill="white"/>
</g>
<defs>
<clipPath id="clip0_465_850">
<rect width="46" height="42" fill="white" transform="translate(11.5 13)"/>
</clipPath>
</defs>
</svg>
