<svg width="69" height="68" viewBox="0 0 69 68" fill="none" xmlns="http://www.w3.org/2000/svg">
<circle cx="34.5" cy="34" r="34" fill="#FF66CF"/>
<g clip-path="url(#clip0_465_886)">
<path d="M29.8781 47.6246C29.5726 47.6246 29.3689 47.6246 29.1551 47.6246C24.9802 47.6044 20.8052 47.5943 16.6201 47.5742C15.5815 47.5742 15.5 47.4935 15.5 46.4451C15.5 39.1262 15.5 31.7973 15.5 24.4784C15.5 23.3594 15.5713 23.2989 16.7016 23.2989C17.954 23.2989 19.2167 23.3191 20.4692 23.2888C20.6932 23.2788 21.0292 23.1477 21.1311 22.9662C22.3326 20.7383 24.1757 19.4479 26.7112 19.1153C26.752 19.1052 26.7927 19.085 26.8334 19.0649C26.9556 18.3491 27.0167 17.6132 27.2 16.9075C28.2081 13.0364 31.9248 10.6068 36.1099 11.0605C39.8368 11.4637 42.912 14.7602 43.0749 18.5709C43.0953 18.9439 43.1768 19.1153 43.5943 19.1758C45.9159 19.5286 47.6368 20.7585 48.7569 22.7949C48.9708 23.188 49.2151 23.3191 49.653 23.309C50.9768 23.2788 52.3005 23.2888 53.6141 23.2989C54.3574 23.309 54.5102 23.4602 54.5102 24.2062C54.5102 31.6965 54.5204 39.1867 54.5102 46.677C54.5102 47.4431 54.3167 47.6145 53.4919 47.6145C49.317 47.6145 45.142 47.6145 40.9569 47.6145C40.7125 47.6145 40.458 47.6145 40.1219 47.6145C40.5496 48.673 40.9162 49.6307 41.3337 50.5683C41.405 50.7195 41.6901 50.8405 41.8836 50.8505C43.8997 50.8808 43.5739 50.6086 44.246 52.6349C44.5922 53.6934 44.9587 54.7519 45.305 55.8104C45.5697 56.6169 45.305 57 44.47 57C38.1567 57 31.8535 57 25.5402 57C24.7154 57 24.4507 56.6371 24.695 55.8709C25.1634 54.4092 25.6726 52.9575 26.141 51.4957C26.2937 51.032 26.589 50.79 27.0371 50.8808C28.3099 51.153 28.8802 50.5179 29.1653 49.3989C29.3282 48.8142 29.6133 48.2698 29.8781 47.6246ZM16.9256 46.1931C29.0024 46.1931 41.018 46.1931 53.0744 46.1931C53.0744 39.0355 53.0744 31.8981 53.0744 24.7304C51.8627 24.7304 50.6916 24.7304 49.541 24.7304C49.5104 24.801 49.4901 24.8212 49.4901 24.8413C49.8872 27.785 48.8995 30.1339 46.476 31.8981C46.3232 32.009 46.2316 32.2812 46.2214 32.4828C46.1909 33.3296 46.2825 34.1764 46.1909 35.0131C46.0687 36.1019 46.4149 36.8882 47.2601 37.5939C47.8303 38.0677 48.2274 38.5415 49.1439 38.2693C50.1825 37.9669 51.2721 38.6726 51.7303 39.6807C52.1783 40.6586 51.9238 41.8582 51.1193 42.584C50.3149 43.2998 49.0726 43.4208 48.146 42.8764C47.199 42.3219 46.6593 41.1929 46.9953 40.1646C47.1888 39.5698 47.0564 39.1968 46.588 38.8843C45.0504 37.8258 44.5107 36.3943 44.7856 34.5797C44.8773 33.995 44.7958 33.38 44.7958 32.6743C44.4802 32.8256 44.1849 32.876 44.1339 33.007C43.8997 33.632 43.4008 33.622 42.8713 33.622C42.688 33.622 42.4029 33.622 42.352 33.7228C42.1178 34.1462 41.8937 34.5998 41.8123 35.0636C41.7817 35.2551 42.1483 35.5071 42.3418 35.7289C42.7796 36.2128 42.7898 36.4951 42.3112 36.9689C41.8021 37.483 41.293 37.9871 40.7736 38.4911C40.0099 39.2472 39.8165 39.2472 39.0527 38.5113C38.9204 38.3802 38.7167 38.1685 38.6149 38.1988C38.1465 38.3298 37.6577 38.481 37.2708 38.7532C37.1078 38.8641 37.1587 39.2875 37.1486 39.5799C37.118 40.2755 36.9245 40.4771 36.2118 40.4771C35.4277 40.4872 34.6334 40.4771 33.8493 40.4771C33.0042 40.4771 32.8209 40.2856 32.8107 39.4186C32.8107 39.1867 32.8413 38.8339 32.7292 38.7633C32.3118 38.5113 31.8535 38.3097 31.3851 38.2189C31.212 38.1887 30.9574 38.5012 30.7538 38.6827C30.1937 39.1968 29.929 39.2069 29.3995 38.6927C28.9718 38.2794 28.5543 37.856 28.1368 37.4427C27.1084 36.4245 27.088 36.4144 28.035 35.3559C28.3812 34.9728 27.9943 34.751 27.9433 34.4486C27.8211 33.7933 27.4546 33.5211 26.752 33.5917C26.4974 33.6119 26.2021 33.3699 25.9475 33.1985C25.7337 33.0574 25.5606 32.8659 25.3671 32.6945C25.306 32.7348 25.2551 32.7751 25.194 32.8054C25.194 33.3901 25.1227 33.9849 25.2042 34.5494C25.4893 36.3842 24.9292 37.8358 23.3815 38.9044C22.9436 39.2069 22.8214 39.5698 23.0047 40.1343C23.3305 41.1525 22.852 42.2514 21.9457 42.826C21.0394 43.3905 19.7564 43.3099 18.952 42.6344C18.1068 41.9288 17.8217 40.6989 18.2595 39.7009C18.677 38.7331 19.7666 37.977 20.7645 38.2593C21.7522 38.5415 22.2614 38.1383 22.801 37.5032C23.0047 37.2612 23.2898 37.0798 23.4629 36.8177C23.6157 36.5959 23.7684 36.3136 23.7786 36.0515C23.8091 34.872 23.8091 33.6925 23.7786 32.503C23.7684 32.261 23.5953 31.9485 23.3916 31.8074C21.9457 30.7186 20.9376 29.3274 20.5914 27.5632C20.4081 26.6458 20.459 25.6881 20.3979 24.7304C19.2982 24.7304 18.1272 24.7304 16.9154 24.7304C16.9256 31.888 16.9256 38.9851 16.9256 46.1931ZM25.8966 31.4444C25.8966 31.021 25.8966 30.6682 25.8966 30.3154C25.8966 29.4988 26.0799 29.3274 26.9149 29.3073C27.1593 29.2972 27.5462 29.3375 27.6277 29.1964C27.8822 28.7931 28.0961 28.3294 28.1775 27.8657C28.2081 27.6741 27.8517 27.412 27.6582 27.2003C27.2 26.7063 27.1898 26.4341 27.6582 25.9603C28.2081 25.3958 28.7681 24.8514 29.3282 24.2969C29.9493 23.682 30.1836 23.6921 30.8149 24.2869C30.988 24.4582 31.2426 24.7304 31.3953 24.7002C31.8637 24.5893 32.3525 24.4179 32.7292 24.1357C32.882 24.0248 32.8005 23.5812 32.8209 23.2888C32.8514 22.6537 33.0755 22.442 33.7373 22.4319C34.552 22.4219 35.3564 22.4219 36.171 22.4319C36.9551 22.4319 37.1384 22.6235 37.1587 23.3997C37.1689 23.6518 37.1078 24.0348 37.2402 24.1155C37.6475 24.3776 38.1057 24.5792 38.5742 24.68C38.7473 24.7204 39.012 24.4179 39.2055 24.2365C39.7859 23.7022 40.0405 23.6921 40.6005 24.2365C41.1198 24.7405 41.629 25.2446 42.1381 25.7587C42.8509 26.4644 42.8509 26.6559 42.1585 27.3616C42.0159 27.5128 41.7614 27.7245 41.7919 27.8455C41.9141 28.3092 42.0872 28.783 42.352 29.1762C42.4538 29.3173 42.8509 29.2871 43.1258 29.2972C43.9099 29.3274 44.0932 29.5089 44.0932 30.2952C44.0932 30.6581 44.0932 31.021 44.0932 31.4142C46.364 30.7791 48.0747 28.6217 48.1561 26.3837C48.2682 23.1477 45.8446 20.5669 42.576 20.446C41.8021 20.4157 41.629 20.2242 41.6392 19.4379C41.6493 18.9338 41.6697 18.4197 41.5883 17.9257C41.0078 14.5284 37.7901 12.0182 34.5214 12.3811C30.764 12.7944 28.2081 15.6776 28.3608 19.3371C28.4016 20.2746 28.2794 20.4057 27.3527 20.446C24.5423 20.5669 22.2614 22.6235 21.8846 25.3857C21.518 27.9866 23.188 30.5674 25.8966 31.4444ZM29.0533 36.2632C29.43 36.6564 29.7559 36.979 30.0715 37.3217C30.1734 37.2411 30.2446 37.1907 30.3057 37.1302C31.1 36.3842 31.1 36.3943 32.047 36.8983C32.2914 37.0294 32.5358 37.1806 32.8005 37.2411C33.7577 37.4628 34.6131 37.7451 34.2057 39.0859C34.5621 39.0859 34.7862 39.0859 35.0204 39.0859C35.2444 39.0859 35.4786 39.0859 35.7332 39.0859C35.7433 38.8641 35.7739 38.7129 35.7535 38.5819C35.6619 37.9064 35.9674 37.5637 36.6191 37.4225C37.006 37.3419 37.4031 37.2007 37.7493 37.0092C38.9 36.3842 38.7778 36.2531 39.8572 37.2612C39.8775 37.2814 39.9386 37.2713 39.9488 37.2713C40.2849 36.9588 40.6209 36.6664 41.018 36.2934C39.847 35.6583 40.1016 34.872 40.6718 34.0554C40.7533 33.9345 40.8144 33.7933 40.8449 33.6522C41.0689 32.7247 41.3235 31.8275 42.6676 32.2408C42.6676 31.6763 42.6676 31.2227 42.6676 30.7388C42.4945 30.7287 42.3418 30.6984 42.1992 30.7186C41.5373 30.7892 41.1504 30.5271 41.0282 29.8516C40.9671 29.5089 40.8449 29.146 40.6514 28.8536C40.1219 28.0169 39.8063 27.2406 40.9773 26.6257C40.5802 26.2325 40.2645 25.9099 39.9285 25.5672C39.7961 25.6881 39.6841 25.7587 39.6026 25.8494C39.1444 26.414 38.6556 26.4644 38.0446 26.0611C37.7188 25.8394 37.3217 25.6982 36.9449 25.5672C35.7943 25.1639 35.7841 25.174 35.7128 23.9844C35.7128 23.9441 35.6721 23.9139 35.6415 23.8635C35.1935 23.8635 34.7454 23.8635 34.2668 23.8635C34.2567 24.0348 34.2261 24.1659 34.2363 24.2768C34.3483 25.0127 33.9919 25.3555 33.2893 25.4966C32.9023 25.5772 32.5256 25.7486 32.159 25.92C31.0593 26.4543 31.0593 26.4644 30.153 25.6478C30.1225 25.6176 30.0817 25.6176 30.1428 25.6377C29.7559 25.9603 29.3995 26.2527 29.0329 26.5551C29.1551 26.6962 29.2467 26.787 29.3282 26.8777C29.9697 27.533 29.9697 27.5834 29.5217 28.4C29.3282 28.7528 29.1653 29.1157 29.0329 29.4988C28.6358 30.638 28.646 30.638 27.4342 30.7186C27.3935 30.7186 27.3629 30.7589 27.312 30.7791C27.312 31.2227 27.312 31.6763 27.312 32.1501C27.5055 32.1602 27.6582 32.1904 27.8008 32.1703C28.483 32.0795 28.8292 32.3921 28.9514 33.0473C29.0227 33.3901 29.1245 33.7631 29.318 34.0454C29.9392 34.9023 30.1326 35.6684 29.0533 36.2632ZM26.2937 55.5685C32.1386 55.5685 37.9021 55.5685 43.7165 55.5685C43.3702 54.5301 43.0749 53.5422 42.7185 52.5744C42.6676 52.4232 42.3825 52.2619 42.1992 52.2619C37.4031 52.2417 32.607 52.2417 27.811 52.2619C27.6379 52.2619 27.3527 52.4232 27.3018 52.5744C26.9352 53.5523 26.6298 54.5301 26.2937 55.5685ZM30.1123 50.8405C33.4217 50.8405 36.6089 50.8405 39.8877 50.8405C39.4601 49.792 39.0629 48.8041 38.6352 47.8262C38.5843 47.7153 38.3196 47.6347 38.1567 47.6347C36.0488 47.6246 33.941 47.6246 31.8332 47.6347C31.6601 47.6347 31.3953 47.7657 31.3342 47.8968C30.9167 48.8343 30.5399 49.792 30.1123 50.8405ZM20.5812 41.8078C21.1514 41.7977 21.6708 41.2836 21.6809 40.709C21.6911 40.1343 21.182 39.6101 20.6016 39.6C20.0008 39.59 19.4509 40.1343 19.4713 40.7291C19.4815 41.3138 20.0008 41.8078 20.5812 41.8078ZM50.5389 40.709C50.5491 40.1343 50.0399 39.6101 49.4595 39.6C48.8791 39.5799 48.3496 40.0839 48.3292 40.6586C48.3089 41.2533 48.8486 41.8078 49.4392 41.8078C50.0094 41.8078 50.5287 41.2937 50.5389 40.709Z" fill="white"/>
<path d="M34.9378 35.7793C32.5448 35.7692 30.6305 33.8336 30.6407 31.4343C30.6508 29.0451 32.6365 27.1196 35.0702 27.1398C37.4529 27.17 39.3673 29.1157 39.3673 31.4948C39.3571 33.8941 37.3918 35.7894 34.9378 35.7793ZM34.9785 34.3579C36.6383 34.3579 37.9417 33.0876 37.9315 31.4545C37.9315 29.8617 36.6281 28.5612 35.0193 28.5612C33.3798 28.5512 32.0561 29.8617 32.0663 31.4848C32.0764 33.0876 33.3595 34.3579 34.9785 34.3579Z" fill="white"/>
</g>
<defs>
<clipPath id="clip0_465_886">
<rect width="39" height="46" fill="white" transform="translate(15.5 11)"/>
</clipPath>
</defs>
</svg>
