<svg width="68" height="68" viewBox="0 0 68 68" fill="none" xmlns="http://www.w3.org/2000/svg">
<circle cx="34" cy="34" r="34" fill="#2D8FFF"/>
<g clip-path="url(#clip0_465_889)">
<path d="M19.3895 38.5024C18.9167 38.5024 18.4745 38.5024 18.0078 38.5024C18.0078 35.4968 18.0078 32.5213 18.0078 29.5036C18.4684 29.5036 18.9167 29.5036 19.3956 29.5036C19.3956 24.7995 19.3956 20.1374 19.3956 15.4333C18.9351 15.4333 18.4807 15.4333 18.0078 15.4333C18.0078 14.2708 18.0078 13.1504 18.0078 12C28.6622 12 39.3227 12 50.0017 12C50.0017 13.1264 50.0017 14.2527 50.0017 15.4152C49.5472 15.4152 49.1051 15.4152 48.6323 15.4152C48.6323 27.5822 48.6323 39.7191 48.6323 51.8861C49.0805 51.8861 49.5288 51.8861 50.0017 51.8861C50.0017 53.2715 50.0017 54.6267 50.0017 56C39.335 56 28.6806 56 18.0078 56C18.0078 54.6327 18.0078 53.2956 18.0078 51.9102C18.4622 51.9102 18.9167 51.9102 19.3956 51.9102C19.3895 47.4289 19.3895 42.9897 19.3895 38.5024ZM37.198 36.4726C37.6217 36.4726 38.0331 36.5087 38.4384 36.4665C39.0095 36.4003 39.4333 36.581 39.7956 37.0146C39.9429 37.1953 40.0351 37.3519 40.0351 37.5929C40.0228 39.5203 40.0289 41.4478 40.0289 43.3752C40.0289 43.7667 39.6789 44.1101 39.2859 44.1101C38.8315 44.1101 38.3709 44.1101 37.9103 44.1101C37.9103 44.8509 37.9103 45.5496 37.9103 46.2604C38.1498 46.2724 38.3647 46.2845 38.5797 46.2965C38.5797 47.447 38.5797 48.5613 38.5797 49.7117C38.3402 49.7117 38.1314 49.7117 37.9103 49.7117C37.9103 50.4465 37.9103 51.1513 37.9103 51.862C40.3175 51.862 42.7063 51.862 45.0951 51.862C45.0951 39.707 45.0951 27.5762 45.0951 15.4393C42.9274 15.4393 40.7842 15.4393 38.5981 15.4393C38.5981 17.0656 38.5981 18.6798 38.5981 20.3181C38.3463 20.3181 38.1375 20.3181 37.9165 20.3181C37.9165 21.5168 37.9165 22.6853 37.9165 23.8418C37.9595 23.8598 37.9779 23.8719 37.9963 23.8719C38.4262 23.8719 38.856 23.8779 39.2859 23.8779C39.6789 23.8779 40.0289 24.2272 40.0289 24.6127C40.0289 26.4016 40.0044 28.1845 40.0412 29.9734C40.0535 30.5216 39.9245 30.9311 39.4885 31.2745C39.292 31.4311 39.1262 31.5274 38.8683 31.5214C38.3218 31.5034 37.7691 31.5154 37.2041 31.5154C37.198 33.1838 37.198 34.8162 37.198 36.4726ZM32.2607 20.3121C32.2607 18.6678 32.2607 17.0656 32.2607 15.4513C30.0807 15.4513 27.9253 15.4513 25.776 15.4513C25.776 20.1435 25.776 24.7995 25.776 29.5036C26.7278 29.5036 27.649 29.5036 28.5762 29.5036C28.5762 32.5213 28.5762 35.4968 28.5762 38.5084C27.6305 38.5084 26.7094 38.5084 25.776 38.5084C25.776 42.9897 25.776 47.4289 25.776 51.8741C28.1771 51.8741 30.5536 51.8741 32.9485 51.8741C32.9485 51.1513 32.9485 50.4405 32.9485 49.7057C32.7213 49.7057 32.5125 49.7057 32.2914 49.7057C32.2914 48.5492 32.2914 47.4229 32.2914 46.2664C32.5309 46.2664 32.7397 46.2664 32.9485 46.2664C32.9485 45.5376 32.9485 44.8389 32.9485 44.1161C32.488 44.1161 32.052 44.1161 31.6098 44.1161C31.1738 44.1161 30.8299 43.7788 30.8299 43.3451C30.8299 41.4658 30.8361 39.5926 30.8238 37.7133C30.8238 37.3881 30.9282 37.1652 31.1554 36.9243C31.4809 36.5749 31.8247 36.4123 32.3037 36.4665C32.6783 36.5087 33.059 36.4786 33.4398 36.4726C33.5196 36.4726 33.5933 36.4545 33.6731 36.4485C33.6731 34.8041 33.6731 33.1778 33.6731 31.5214C33.2433 31.5214 32.8196 31.4853 32.4081 31.5274C31.8493 31.5877 31.4317 31.419 31.0817 30.9854C30.9282 30.7926 30.8238 30.63 30.8299 30.377C30.8422 28.4496 30.8361 26.5221 30.8361 24.5947C30.8361 24.2333 31.2045 23.8779 31.573 23.8719C32.0274 23.8719 32.488 23.8719 32.9485 23.8719C32.9485 22.6612 32.9485 21.4987 32.9485 20.3061C32.7213 20.3121 32.5187 20.3121 32.2607 20.3121ZM49.363 52.5186C39.1201 52.5186 28.8956 52.5186 18.6526 52.5186C18.6526 53.4762 18.6526 54.4159 18.6526 55.3736C28.8956 55.3736 39.1201 55.3736 49.363 55.3736C49.363 54.4159 49.363 53.4762 49.363 52.5186ZM47.9322 51.8861C47.9322 39.7191 47.9322 27.5882 47.9322 15.4272C47.2813 15.4272 46.6488 15.4272 46.0163 15.4272C45.9364 15.4272 45.8566 15.4393 45.7706 15.4513C45.7706 27.6063 45.7706 39.7432 45.7706 51.8921C46.5014 51.8861 47.2076 51.8861 47.9322 51.8861ZM49.363 12.6264C39.1078 12.6264 28.8894 12.6264 18.6342 12.6264C18.6342 12.9938 18.6342 13.3432 18.6342 13.6925C18.6342 14.0479 18.6342 14.4093 18.6342 14.7707C28.9017 14.7707 39.1324 14.7707 49.363 14.7707C49.363 14.0419 49.363 13.3432 49.363 12.6264ZM18.6526 37.8459C21.7844 37.8459 24.8794 37.8459 27.9621 37.8459C27.9621 36.1895 27.9621 34.5632 27.9621 32.9369C24.8426 32.9369 21.7476 32.9369 18.6526 32.9369C18.6526 34.5873 18.6526 36.2136 18.6526 37.8459ZM37.1796 30.883C37.7322 30.883 38.2358 30.883 38.7332 30.883C39.0709 30.883 39.3841 30.5697 39.3841 30.2385C39.3841 29.353 39.3841 28.4736 39.3841 27.5882C39.3841 27.5039 39.3718 27.4136 39.3596 27.3051C39.2245 27.3051 39.1139 27.3051 39.0034 27.3051C38.0516 27.3051 37.0997 27.3051 36.1479 27.3051C35.4417 27.3051 34.7355 27.3051 34.0293 27.3051C33.8205 27.3051 33.6916 27.2088 33.6916 27.004C33.6916 26.7932 33.8205 26.6968 34.0293 26.7028C34.1091 26.7028 34.1951 26.7028 34.2749 26.7028C35.8593 26.7028 37.4436 26.7028 39.0341 26.7028C39.1446 26.7028 39.249 26.6908 39.3841 26.6908C39.3841 26.0162 39.3841 25.3777 39.3841 24.7392C39.3841 24.5284 39.2368 24.5103 39.0709 24.5103C36.6576 24.5103 34.2442 24.5164 31.8309 24.5103C31.5852 24.5103 31.4809 24.6007 31.4809 24.8476C31.487 26.6606 31.4809 28.4797 31.487 30.2927C31.487 30.4914 31.7756 30.8769 31.9721 30.883C32.5371 30.901 33.1082 30.889 33.71 30.889C33.71 30.4071 33.71 29.9734 33.71 29.5217C34.8829 29.5217 36.0189 29.5217 37.1918 29.5217C37.1796 29.9674 37.1796 30.4071 37.1796 30.883ZM37.1673 37.111C37.1673 37.5989 37.1673 38.0326 37.1673 38.4783C35.9944 38.4783 34.8583 38.4783 33.6854 38.4783C33.6854 38.0205 33.6854 37.5808 33.6854 37.105C33.145 37.105 32.6353 37.105 32.1256 37.105C31.7879 37.105 31.4747 37.4182 31.4747 37.7555C31.4747 38.6409 31.4747 39.5203 31.4747 40.4058C31.4747 40.4901 31.487 40.5804 31.4993 40.6888C31.6221 40.6888 31.7265 40.6888 31.8247 40.6888C33.4214 40.6888 35.018 40.6888 36.6146 40.6888C36.7067 40.6888 36.8173 40.6587 36.8848 40.7009C36.9953 40.7671 37.1427 40.8695 37.1489 40.9659C37.1611 41.0683 37.0445 41.2189 36.9401 41.2791C36.8357 41.3394 36.6822 41.3213 36.5532 41.3213C34.975 41.3213 33.4029 41.3213 31.8247 41.3273C31.7142 41.3273 31.6098 41.3333 31.4747 41.3394C31.4747 42.0019 31.4747 42.6283 31.4747 43.2608C31.4747 43.4535 31.5975 43.4897 31.7572 43.4897C32.0642 43.4897 32.3713 43.4897 32.6783 43.4897C34.7846 43.4897 36.8971 43.4836 39.0034 43.4957C39.2797 43.4957 39.4026 43.4174 39.3841 43.1343C39.3657 42.9054 39.378 42.6705 39.378 42.4416C39.378 40.8876 39.378 39.3276 39.378 37.7736C39.378 37.4965 39.1017 37.1231 38.8622 37.117C38.3218 37.105 37.7691 37.111 37.1673 37.111ZM22.245 29.4795C22.245 24.7814 22.245 20.1194 22.245 15.4453C21.5142 15.4453 20.8019 15.4453 20.0773 15.4453C20.0773 20.1314 20.0773 24.8055 20.0773 29.4795C20.808 29.4795 21.5142 29.4795 22.245 29.4795ZM22.9266 15.4393C22.9266 20.1254 22.9266 24.7934 22.9266 29.4615C23.6635 29.4615 24.3759 29.4615 25.0944 29.4615C25.0944 24.7754 25.0944 20.1133 25.0944 15.4393C24.3636 15.4393 23.6513 15.4393 22.9266 15.4393ZM22.2389 51.8801C22.2389 47.4048 22.2389 42.9717 22.2389 38.5265C21.502 38.5265 20.7958 38.5265 20.0711 38.5265C20.0711 42.9837 20.0711 47.4229 20.0711 51.8801C20.8019 51.8801 21.5142 51.8801 22.2389 51.8801ZM22.9205 38.5205C22.9205 42.9958 22.9205 47.4289 22.9205 51.8801C23.6513 51.8801 24.3636 51.8801 25.0821 51.8801C25.0821 47.4168 25.0821 42.9717 25.0821 38.5205C24.3513 38.5205 23.6513 38.5205 22.9205 38.5205ZM32.9301 15.4393C32.9301 16.8548 32.9301 18.2582 32.9301 19.6556C34.6188 19.6556 36.2769 19.6556 37.941 19.6556C37.941 18.2341 37.941 16.8487 37.941 15.4393C36.2584 15.4393 34.6065 15.4393 32.9301 15.4393ZM27.9744 30.1421C24.8487 30.1421 21.7599 30.1421 18.6526 30.1421C18.6526 30.8589 18.6526 31.5576 18.6526 32.2623C21.7722 32.2623 24.8733 32.2623 27.9744 32.2623C27.9744 31.5455 27.9744 30.8589 27.9744 30.1421ZM34.3425 30.1361C34.3425 32.7321 34.3425 35.286 34.3425 37.8459C35.0794 37.8459 35.7979 37.8459 36.5164 37.8459C36.5164 35.2619 36.5164 32.708 36.5164 30.1361C35.7856 30.1361 35.0733 30.1361 34.3425 30.1361ZM37.2348 20.3302C36.0312 20.3302 34.8399 20.3302 33.6424 20.3302C33.6424 21.5168 33.6424 22.6793 33.6424 23.8478C34.8522 23.8478 36.0435 23.8478 37.2348 23.8478C37.2348 22.6672 37.2348 21.5107 37.2348 20.3302ZM32.9178 49.0552C34.6004 49.0552 36.2646 49.0552 37.941 49.0552C37.941 48.3384 37.941 47.6397 37.941 46.929C36.2584 46.929 34.5943 46.929 32.9178 46.929C32.9178 47.6397 32.9178 48.3264 32.9178 49.0552ZM33.6363 44.1342C33.6363 44.8569 33.6363 45.5496 33.6363 46.2604C34.846 46.2604 36.0312 46.2604 37.2348 46.2604C37.2348 45.5436 37.2348 44.8449 37.2348 44.1342C36.0312 44.1342 34.8522 44.1342 33.6363 44.1342ZM33.6424 49.7238C33.6424 50.4586 33.6424 51.1633 33.6424 51.8801C34.8522 51.8801 36.0312 51.8801 37.2348 51.8801C37.2348 51.1573 37.2348 50.4465 37.2348 49.7238C36.0312 49.7238 34.846 49.7238 33.6424 49.7238Z" fill="white"/>
<path d="M23.036 35.7497C22.95 35.6353 22.8088 35.5269 22.7903 35.4004C22.7535 35.2016 22.9193 35.0571 23.1035 35.0932C23.2202 35.1173 23.3799 35.2799 23.3921 35.3944C23.4044 35.5028 23.2509 35.6293 23.1711 35.7437C23.1281 35.7497 23.0851 35.7497 23.036 35.7497Z" fill="white"/>
<path d="M21.8082 35.7498C21.7223 35.6353 21.5626 35.5149 21.5749 35.4065C21.5872 35.292 21.7407 35.1294 21.8574 35.0993C22.0477 35.0571 22.2074 35.2017 22.1828 35.3944C22.1644 35.5209 22.0293 35.6293 21.9433 35.7438C21.8942 35.7498 21.8512 35.7498 21.8082 35.7498Z" fill="white"/>
<path d="M24.6663 35.4847C24.5435 35.557 24.4269 35.6775 24.304 35.6895C24.1137 35.7136 23.9724 35.563 24.0216 35.3883C24.0584 35.2679 24.2119 35.1113 24.3286 35.1052C24.433 35.0932 24.5558 35.2558 24.6725 35.3402C24.6725 35.3883 24.6725 35.4365 24.6663 35.4847Z" fill="white"/>
</g>
<defs>
<clipPath id="clip0_465_889">
<rect width="32" height="44" fill="white" transform="translate(18 12)"/>
</clipPath>
</defs>
</svg>
