<svg width="69" height="68" viewBox="0 0 69 68" fill="none" xmlns="http://www.w3.org/2000/svg">
<circle cx="34.5" cy="34" r="34" fill="#FF6600"/>
<g clip-path="url(#clip0_465_839)">
<path d="M30.3358 44.1435C34.4572 44.1435 38.5787 44.1435 42.7001 44.1435C44.2793 44.1435 44.52 44.3825 44.5297 45.9312C44.5393 47.2983 44.5586 48.6559 44.52 50.023C44.4912 51.1989 43.3549 51.9064 42.3342 51.3519C42.103 51.2276 41.9779 50.7496 41.9682 50.4341C41.8816 48.0632 40.4083 46.4666 38.2609 46.4475C36.0943 46.4284 34.515 48.0345 34.5247 50.3672C34.5343 51.1989 34.255 51.457 33.4558 51.4475C31.3373 51.4188 29.2092 51.4092 27.0907 51.4475C26.2626 51.457 26.0411 51.1511 26.0411 50.3481C26.0411 48.0058 24.4715 46.4188 22.2952 46.4475C20.2056 46.4762 18.636 48.1205 18.6264 50.3385C18.6264 50.9217 18.6842 51.4379 17.8657 51.4379C17.0664 51.4379 16.0938 51.5335 16.0264 50.4628C15.9109 48.6941 15.9398 46.9064 16.0168 45.1377C16.0553 44.2295 16.8449 44.1339 17.596 44.1339C21.8426 44.1435 26.0892 44.1435 30.3358 44.1435Z" fill="white"/>
<path d="M54.971 36.0269C54.971 41.524 54.971 47.0116 54.971 52.5087C54.971 52.8433 55.0287 53.197 54.9228 53.4934C54.8458 53.7133 54.5473 53.9332 54.3162 53.981C54.1814 54.0096 53.9695 53.7037 53.8058 53.5316C53.7577 53.4838 53.7865 53.3691 53.7769 53.2926C53.6999 52.6617 53.8347 51.6769 53.488 51.4666C52.9295 51.1225 52.0532 51.285 51.3214 51.2467C51.071 51.2372 50.8207 51.2467 50.5703 51.2467C48.7696 51.2467 48.8081 51.2467 48.654 52.9771C48.6251 53.3404 48.2592 53.6655 48.057 54.0096C47.8644 53.6559 47.5178 53.3022 47.5178 52.9389C47.4889 41.7439 47.4889 30.5488 47.5178 19.3538C47.5178 18.981 47.8355 18.6081 48.0089 18.2448C48.24 18.6177 48.4229 19.0192 48.7022 19.3443C48.9718 19.6502 49.3088 20.0708 49.6459 20.0995C50.7147 20.1951 51.8029 20.1186 52.891 20.1378C53.5169 20.1569 53.7577 19.9179 53.8058 19.2773C53.8347 18.914 54.1814 18.5794 54.3836 18.2257C54.5858 18.6272 54.9517 19.0192 54.9517 19.4207C54.9806 24.9561 54.971 30.4915 54.971 36.0269ZM51.2058 32.9771C53.9502 32.9389 53.6806 33.3118 53.7962 31.3041C53.8636 30.0708 53.4014 29.698 52.2362 29.8318C51.6199 29.8987 50.994 29.8414 50.3681 29.8414C48.6637 29.8414 48.7503 29.8509 48.6444 31.5049C48.5674 32.7477 49.0488 33.1397 50.2044 32.9771C50.5318 32.9389 50.8688 32.9771 51.2058 32.9771ZM51.2444 37.2506C53.8732 37.2123 53.748 37.6043 53.7673 35.7974C53.7769 34.1244 53.7673 34.1244 52.0821 34.1148C51.4562 34.1148 50.8303 34.1722 50.214 34.1053C49.0488 33.9714 48.577 34.3538 48.654 35.5871C48.7503 37.2506 48.6733 37.2506 50.3777 37.2506C50.657 37.2506 50.9459 37.2506 51.2444 37.2506ZM51.254 46.9638C48.6829 46.9638 48.6829 46.9638 48.6733 48.3787C48.6637 50.1186 48.6637 50.1186 50.4355 50.1186C51.0133 50.1186 51.6103 50.0517 52.1784 50.1282C53.4303 50.3003 53.8828 49.8605 53.7865 48.5699C53.671 46.9829 53.7577 46.9733 52.1206 46.9733C51.8414 46.9638 51.5429 46.9638 51.254 46.9638ZM51.1192 24.3921C53.8925 24.3921 53.8636 24.3921 53.7769 22.2123C53.748 21.4953 53.4688 21.285 52.8043 21.3041C51.7258 21.3328 50.6473 21.2659 49.5785 21.3423C49.2703 21.3615 48.7792 21.6483 48.7118 21.9064C48.2207 23.8662 48.654 24.4016 50.6185 24.4016C50.7918 24.3921 50.9555 24.3921 51.1192 24.3921ZM51.1288 28.6655C54.0947 28.6081 53.6999 29.1244 53.7769 26.6005C53.8058 25.74 53.4399 25.5393 52.6695 25.5775C51.8414 25.6253 51.0036 25.654 50.1851 25.568C49.02 25.4437 48.5674 25.807 48.6444 27.0402C48.7503 28.6559 48.6637 28.6655 50.2525 28.6655C50.551 28.6655 50.8399 28.6655 51.1288 28.6655ZM51.2733 38.436C48.5289 38.4743 48.7022 38.1301 48.6829 39.8031C48.654 41.5144 48.6733 41.524 50.4259 41.524C51.0421 41.524 51.6777 41.4571 52.2843 41.5335C53.488 41.6865 53.8636 41.2181 53.7962 40.0326C53.6999 38.4456 53.7673 38.436 52.1495 38.436C51.851 38.436 51.5621 38.436 51.2733 38.436ZM51.2347 45.7878C51.8125 45.7878 52.3999 45.8261 52.968 45.7592C53.2377 45.7305 53.6325 45.5393 53.7095 45.3194C54.3354 43.6942 53.6421 42.6999 51.9473 42.6999C51.331 42.6999 50.6955 42.7668 50.0888 42.6808C48.9044 42.5183 48.5963 43.0154 48.654 44.1244C48.7311 45.7687 48.6733 45.7783 50.3681 45.7783C50.657 45.7878 50.9459 45.7878 51.2347 45.7878Z" fill="white"/>
<path d="M29.0179 23.1588C34.4297 23.1588 39.8415 23.197 45.2436 23.1301C46.4184 23.1206 46.7554 23.4743 46.7073 24.6024C46.6206 26.9829 46.8517 26.6483 44.608 26.6483C34.083 26.6578 23.5484 26.6292 13.0234 26.677C11.8101 26.6865 11.3478 26.3232 11.5308 25.1473C11.5693 24.9083 11.5597 24.6502 11.5308 24.4016C11.4056 23.4456 11.7619 23.111 12.773 23.1206C18.1944 23.1875 23.6062 23.1588 29.0179 23.1588Z" fill="white"/>
<path d="M30.319 34.0192C32.5434 32.0498 34.7004 30.1282 36.8767 28.2161C37.8589 27.3461 39.0914 27.1836 40.6129 27.8624C37.7144 30.4341 34.8834 32.9484 31.9656 35.5297C34.7678 38.0249 37.4737 40.4341 40.2277 42.8815C38.9855 43.5698 37.6278 43.4838 36.7804 42.7381C34.633 40.8547 32.5049 38.9618 30.2901 37.0115C28.2583 38.8089 26.2072 40.501 24.3198 42.3461C23.1643 43.4647 21.9413 43.4456 20.3332 42.9006C23.0487 40.4819 25.7642 38.0727 28.6146 35.5297C25.7642 32.9771 22.9524 30.4628 20.1406 27.9484C20.1888 27.8337 20.2465 27.7285 20.2947 27.6138C21.4021 27.4609 22.5095 27.1358 23.5591 28.0823C25.4657 29.8031 27.4012 31.4953 29.3271 33.197C29.6257 33.4551 29.9434 33.7133 30.319 34.0192Z" fill="white"/>
<path d="M39.734 18.3213C39.734 19.3538 39.6954 20.3863 39.7436 21.4092C39.7821 22.174 39.4547 22.3748 38.7229 22.4035C35.2659 22.4991 35.2659 22.5278 35.2659 19.1243C35.2659 17.805 35.2948 16.4857 35.2563 15.1664C35.2274 14.392 35.4585 14.0765 36.2962 14.0383C39.7436 13.9044 39.7436 13.8758 39.7436 17.327C39.734 17.6616 39.734 17.9867 39.734 18.3213Z" fill="white"/>
<path d="M34.4873 18.197C34.4873 19.2295 34.4584 20.2525 34.4969 21.285C34.5258 22.0402 34.3044 22.3844 33.457 22.4131C30.0192 22.5087 30.0192 22.5374 30.0192 19.1339C30.0192 17.7764 30.0481 16.4188 30.0096 15.0613C29.9807 14.2964 30.2985 14.0861 31.0303 14.0574C34.4873 13.9045 34.4873 13.8854 34.4873 18.197Z" fill="white"/>
<path d="M25.2828 50.1951C25.2539 51.7916 23.9058 53.1014 22.3073 53.0727C20.6992 53.044 19.4185 51.7056 19.4377 50.0995C19.457 48.4934 20.8051 47.1932 22.4036 47.2314C24.0117 47.2505 25.3117 48.589 25.2828 50.1951ZM24.0021 50.1473C24.0021 49.2582 23.2125 48.4838 22.3266 48.5029C21.431 48.522 20.6895 49.2964 20.7377 50.2142C20.7955 51.1989 21.3829 51.7056 22.3266 51.7725C23.2221 51.8299 24.0021 51.0364 24.0021 50.1473Z" fill="white"/>
<path d="M38.2029 53.0727C36.5948 53.0536 35.2756 51.7152 35.2852 50.1282C35.2948 48.5412 36.6526 47.2123 38.2415 47.2219C39.84 47.241 41.1784 48.5794 41.1688 50.1664C41.1496 51.7438 39.7822 53.0918 38.2029 53.0727ZM38.28 51.7725C39.1851 51.7343 39.9266 50.9503 39.8399 50.0517C39.7437 49.0861 39.1563 48.5698 38.2126 48.5125C37.3363 48.4647 36.5467 49.306 36.5659 50.176C36.5852 51.0651 37.3844 51.8012 38.28 51.7725Z" fill="white"/>
<path d="M25.1286 21.7725C23.6264 20.5297 22.3072 19.4303 20.8242 18.2065C22.2301 17.0306 23.5686 15.9121 25.1286 14.6215C25.1286 17.0689 25.1286 19.2486 25.1286 21.7725Z" fill="white"/>
<path d="M16 14.1721C18.9081 14.1721 21.431 14.1721 23.9539 14.1721C24.0117 14.2582 24.0695 14.3346 24.1273 14.4207C22.8273 15.501 21.5369 16.5813 20.2081 17.6903C18.86 16.5622 17.5696 15.4819 16 14.1721Z" fill="white"/>
<path d="M16.25 22.0115C17.5403 20.9408 18.8307 19.8605 20.2077 18.7133C21.5366 19.8318 22.8462 20.9312 24.4447 22.2697C21.4884 22.2697 18.9366 22.2697 16.3848 22.2697C16.3367 22.1836 16.2981 22.0976 16.25 22.0115Z" fill="white"/>
<path d="M19.6021 18.197C18.148 19.4016 16.848 20.4724 15.3555 21.7152C15.3555 19.3251 15.3555 17.1837 15.3555 14.698C16.8288 15.9121 18.1576 17.002 19.6021 18.197Z" fill="white"/>
<path d="M57.4834 24.9752C57.4834 25.2238 57.4641 25.4724 57.493 25.7114C57.5508 26.371 57.3004 26.8204 56.6071 26.6196C56.2701 26.524 55.8753 26.1033 55.7886 25.7592C55.6538 25.2238 55.6538 24.5928 55.7886 24.0575C55.8753 23.7133 56.2701 23.2831 56.6071 23.1875C57.3101 22.9867 57.5412 23.4552 57.493 24.1053C57.4641 24.4016 57.4834 24.6884 57.4834 24.9752Z" fill="white"/>
<path d="M22.3073 51.2372C21.9606 50.7687 21.5177 50.415 21.5754 50.1855C21.6621 49.8509 22.0954 49.6024 22.3843 49.3156C22.6539 49.6215 23.0776 49.9083 23.145 50.2525C23.1932 50.4723 22.7021 50.7974 22.3073 51.2372Z" fill="white"/>
<path d="M38.2441 51.2467C37.8589 50.7878 37.3967 50.4627 37.4449 50.2333C37.5123 49.8891 37.936 49.6214 38.2056 49.3251C38.4849 49.6214 38.9086 49.8796 38.9856 50.2142C39.0337 50.4341 38.6004 50.7782 38.2441 51.2467Z" fill="white"/>
</g>
<defs>
<clipPath id="clip0_465_839">
<rect width="46" height="40" fill="white" transform="translate(11.5 14)"/>
</clipPath>
</defs>
</svg>
