<svg width="24" height="24" viewBox="0 0 24 24" fill="none" xmlns="http://www.w3.org/2000/svg">
<path d="M8 20V4H18V9H19C19.8333 9 20.5417 9.29167 21.125 9.875C21.7083 10.4583 22 11.1667 22 12V20H8ZM4.5 21C5.2 21 5.79167 20.7583 6.275 20.275C6.75833 19.7917 7 19.2 7 18.5V10.5C7 9.8 6.75833 9.20833 6.275 8.725C5.79167 8.24167 5.2 8 4.5 8C3.8 8 3.20833 8.24167 2.725 8.725C2.24167 9.20833 2 9.8 2 10.5V18.5C2 19.2 2.24167 19.7917 2.725 20.275C3.20833 20.7583 3.8 21 4.5 21ZM10 9H16V6H10V9ZM16 14C16.2833 14 16.521 13.904 16.713 13.712C16.905 13.52 17.0007 13.2827 17 13C16.9993 12.7173 16.9033 12.48 16.712 12.288C16.5207 12.096 16.2833 12 16 12C15.7167 12 15.4793 12.096 15.288 12.288C15.0967 12.48 15.0007 12.7173 15 13C14.9993 13.2827 15.0953 13.5203 15.288 13.713C15.4807 13.9057 15.718 14.0013 16 14ZM19 14C19.2833 14 19.521 13.904 19.713 13.712C19.905 13.52 20.0007 13.2827 20 13C19.9993 12.7173 19.9033 12.48 19.712 12.288C19.5207 12.096 19.2833 12 19 12C18.7167 12 18.4793 12.096 18.288 12.288C18.0967 12.48 18.0007 12.7173 18 13C17.9993 13.2827 18.0953 13.5203 18.288 13.713C18.4807 13.9057 18.718 14.0013 19 14ZM16 17C16.2833 17 16.521 16.904 16.713 16.712C16.905 16.52 17.0007 16.2827 17 16C16.9993 15.7173 16.9033 15.48 16.712 15.288C16.5207 15.096 16.2833 15 16 15C15.7167 15 15.4793 15.096 15.288 15.288C15.0967 15.48 15.0007 15.7173 15 16C14.9993 16.2827 15.0953 16.5203 15.288 16.713C15.4807 16.9057 15.718 17.0013 16 17ZM19 17C19.2833 17 19.521 16.904 19.713 16.712C19.905 16.52 20.0007 16.2827 20 16C19.9993 15.7173 19.9033 15.48 19.712 15.288C19.5207 15.096 19.2833 15 19 15C18.7167 15 18.4793 15.096 18.288 15.288C18.0967 15.48 18.0007 15.7173 18 16C17.9993 16.2827 18.0953 16.5203 18.288 16.713C18.4807 16.9057 18.718 17.0013 19 17ZM10 17H14V12H10V17Z" fill="white"/>
</svg>
