<svg width="28" height="28" viewBox="0 0 28 28" fill="none" xmlns="http://www.w3.org/2000/svg">
<circle cx="14" cy="14" r="14" fill="white"/>
<path d="M17 7.25C17.3784 7.24988 17.7429 7.3928 18.0204 7.65012C18.2979 7.90744 18.4679 8.26013 18.4963 8.6375L18.5 8.75V12.5H19.625C19.9047 12.5 20.1743 12.6042 20.3813 12.7922C20.5883 12.9802 20.7179 13.2386 20.7448 13.517L20.75 13.625V19.25C20.75 19.8239 20.5308 20.3761 20.137 20.7937C19.7433 21.2113 19.2049 21.4626 18.632 21.4963L18.5 21.5H8.75C8.37157 21.5001 8.00708 21.3572 7.72959 21.0999C7.4521 20.8426 7.28213 20.4899 7.25375 20.1125L7.25 20V8.75C7.24988 8.37157 7.3928 8.00708 7.65012 7.72959C7.90744 7.4521 8.26013 7.28213 8.6375 7.25375L8.75 7.25H17ZM19.25 14H18.5V20C18.6989 20 18.8897 19.921 19.0303 19.7803C19.171 19.6397 19.25 19.4489 19.25 19.25V14ZM13.25 14.75H11C10.8088 14.7502 10.625 14.8234 10.486 14.9546C10.347 15.0859 10.2633 15.2652 10.2521 15.456C10.2409 15.6469 10.303 15.8348 10.4257 15.9814C10.5484 16.128 10.7224 16.2222 10.9123 16.2448L11 16.25H13.25C13.4412 16.2498 13.625 16.1766 13.764 16.0454C13.903 15.9141 13.9867 15.7348 13.9979 15.544C14.0091 15.3531 13.947 15.1652 13.8243 15.0186C13.7016 14.872 13.5276 14.7778 13.3377 14.7552L13.25 14.75ZM14.75 11H11C10.8011 11 10.6103 11.079 10.4697 11.2197C10.329 11.3603 10.25 11.5511 10.25 11.75C10.25 11.9489 10.329 12.1397 10.4697 12.2803C10.6103 12.421 10.8011 12.5 11 12.5H14.75C14.9489 12.5 15.1397 12.421 15.2803 12.2803C15.421 12.1397 15.5 11.9489 15.5 11.75C15.5 11.5511 15.421 11.3603 15.2803 11.2197C15.1397 11.079 14.9489 11 14.75 11Z" fill="#113D6B"/>
</svg>
