<svg width="28" height="28" viewBox="0 0 28 28" fill="none" xmlns="http://www.w3.org/2000/svg">
<circle cx="14" cy="14" r="14" fill="white"/>
<path d="M14.7714 6.5C15.6152 6.50225 16.0434 6.50675 16.4132 6.51725L16.5587 6.5225C16.7267 6.5285 16.8924 6.536 17.0927 6.545C17.8907 6.5825 18.4352 6.7085 18.9129 6.89375C19.4079 7.08425 19.8249 7.34225 20.2419 7.7585C20.6234 8.1333 20.9186 8.58685 21.1067 9.0875C21.2919 9.56525 21.4179 10.1097 21.4554 10.9085C21.4644 11.108 21.4719 11.2738 21.4779 11.4425L21.4824 11.588C21.4937 11.957 21.4982 12.3853 21.4997 13.229L21.5004 13.7885V14.771C21.5023 15.3181 21.4965 15.8651 21.4832 16.412L21.4787 16.5575C21.4727 16.7262 21.4652 16.892 21.4562 17.0915C21.4187 17.8903 21.2912 18.434 21.1067 18.9125C20.9186 19.4131 20.6234 19.8667 20.2419 20.2415C19.8671 20.623 19.4136 20.9181 18.9129 21.1063C18.4352 21.2915 17.8907 21.4175 17.0927 21.455L16.5587 21.4775L16.4132 21.482C16.0434 21.4925 15.6152 21.4978 14.7714 21.4993L14.2119 21.5H13.2302C12.6829 21.5019 12.1356 21.4962 11.5884 21.4827L11.4429 21.4783C11.2649 21.4715 11.0869 21.4638 10.9089 21.455C10.1109 21.4175 9.56643 21.2915 9.08793 21.1063C8.58755 20.918 8.13426 20.6229 7.75968 20.2415C7.37789 19.8668 7.08251 19.4132 6.89418 18.9125C6.70893 18.4347 6.58293 17.8903 6.54543 17.0915L6.52293 16.5575L6.51918 16.412C6.50535 15.8651 6.4991 15.3181 6.50043 14.771V13.229C6.49835 12.682 6.50385 12.1349 6.51693 11.588L6.52218 11.4425C6.52818 11.2738 6.53568 11.108 6.54468 10.9085C6.58218 10.1097 6.70818 9.566 6.89343 9.0875C7.0822 8.58665 7.37809 8.13308 7.76043 7.7585C8.13479 7.37716 8.58782 7.08206 9.08793 6.89375C9.56643 6.7085 10.1102 6.5825 10.9089 6.545C11.1084 6.536 11.2749 6.5285 11.4429 6.5225L11.5884 6.518C12.1353 6.50467 12.6824 6.49892 13.2294 6.50075L14.7714 6.5ZM14.0004 10.25C13.0059 10.25 12.052 10.6451 11.3488 11.3483C10.6455 12.0516 10.2504 13.0054 10.2504 14C10.2504 14.9946 10.6455 15.9484 11.3488 16.6517C12.052 17.3549 13.0059 17.75 14.0004 17.75C14.995 17.75 15.9488 17.3549 16.6521 16.6517C17.3553 15.9484 17.7504 14.9946 17.7504 14C17.7504 13.0054 17.3553 12.0516 16.6521 11.3483C15.9488 10.6451 14.995 10.25 14.0004 10.25ZM14.0004 11.75C14.2959 11.75 14.5885 11.8081 14.8615 11.9211C15.1345 12.0342 15.3826 12.1998 15.5915 12.4087C15.8005 12.6176 15.9663 12.8657 16.0794 13.1386C16.1925 13.4116 16.2508 13.7042 16.2508 13.9996C16.2509 14.2951 16.1927 14.5877 16.0797 14.8607C15.9666 15.1337 15.801 15.3818 15.5921 15.5907C15.3832 15.7997 15.1351 15.9655 14.8622 16.0786C14.5892 16.1917 14.2967 16.25 14.0012 16.25C13.4044 16.25 12.8321 16.0129 12.4102 15.591C11.9882 15.169 11.7512 14.5967 11.7512 14C11.7512 13.4033 11.9882 12.831 12.4102 12.409C12.8321 11.9871 13.4044 11.75 14.0012 11.75M17.9387 9.125C17.69 9.125 17.4516 9.22377 17.2758 9.39959C17.0999 9.5754 17.0012 9.81386 17.0012 10.0625C17.0012 10.3111 17.0999 10.5496 17.2758 10.7254C17.4516 10.9012 17.69 11 17.9387 11C18.1873 11 18.4258 10.9012 18.6016 10.7254C18.7774 10.5496 18.8762 10.3111 18.8762 10.0625C18.8762 9.81386 18.7774 9.5754 18.6016 9.39959C18.4258 9.22377 18.1873 9.125 17.9387 9.125Z" fill="#113D6B"/>
</svg>
