<svg width="58" height="66" viewBox="0 0 58 66" fill="none" xmlns="http://www.w3.org/2000/svg">
<rect x="57" y="64.6053" width="56" height="63.2108" rx="4" transform="rotate(-180 57 64.6053)" stroke="white" stroke-width="2"/>
<path d="M41.7071 33.707C42.0976 33.3165 42.0976 32.6833 41.7071 32.2928L35.3431 25.9288C34.9526 25.5383 34.3195 25.5383 33.9289 25.9288C33.5384 26.3193 33.5384 26.9525 33.9289 27.343L39.5858 32.9999L33.9289 38.6567C33.5384 39.0473 33.5384 39.6804 33.9289 40.0709C34.3195 40.4615 34.9526 40.4615 35.3431 40.0709L41.7071 33.707ZM17 33.9999L41 33.9999L41 31.9999L17 31.9999L17 33.9999Z" fill="white"/>
</svg>
