<svg width="16" height="17" viewBox="0 0 16 17" fill="none" xmlns="http://www.w3.org/2000/svg">
<path fill-rule="evenodd" clip-rule="evenodd" d="M10.3664 8.93889C9.89562 10.8763 7.83636 12.165 5.65342 11.6345C3.47048 11.104 2.23228 9.01405 2.7031 7.07661C3.17392 5.13917 5.23317 3.8505 7.41611 4.38098C9.59905 4.91146 10.8373 7.00145 10.3664 8.93889ZM9.96582 12.7481C8.62729 13.6449 6.9039 13.9966 5.18114 13.578C1.99164 12.8029 0.0120733 9.68067 0.759659 6.60433C1.50724 3.52799 4.69888 1.66245 7.88839 2.43754C11.0779 3.21262 13.0575 6.33482 12.3099 9.41116C12.1275 10.1615 11.7998 10.8399 11.3621 11.4254C11.3967 11.4541 11.4296 11.4854 11.4606 11.5194L13.8907 14.1819C14.2508 14.5764 14.2131 15.177 13.8067 15.5235C13.4002 15.8699 12.7788 15.831 12.4188 15.4365L9.98863 12.7739C9.98084 12.7654 9.97324 12.7568 9.96582 12.7481Z" fill="white"/>
</svg>
