<svg width="28" height="28" viewBox="0 0 28 28" fill="none" xmlns="http://www.w3.org/2000/svg">
<circle cx="14" cy="14" r="14" fill="white"/>
<path d="M21.8462 9.5C21.2687 9.7625 20.6462 9.935 20.0012 10.0175C20.6612 9.62 21.1713 8.99 21.4113 8.2325C20.7887 8.6075 20.0987 8.87 19.3712 9.02C18.7787 8.375 17.9462 8 17.0013 8C15.2388 8 13.7987 9.44 13.7987 11.2175C13.7987 11.4725 13.8288 11.72 13.8813 11.9525C11.2113 11.8175 8.83375 10.535 7.25125 8.5925C6.97375 9.065 6.81625 9.62 6.81625 10.205C6.81625 11.3225 7.37875 12.3125 8.24875 12.875C7.71625 12.875 7.22125 12.725 6.78625 12.5V12.5225C6.78625 14.0825 7.89625 15.3875 9.36625 15.68C8.89438 15.8097 8.39878 15.8277 7.91875 15.7325C8.12246 16.3719 8.5214 16.9313 9.05951 17.3322C9.59762 17.7331 10.2478 17.9553 10.9187 17.9675C9.7815 18.8679 8.37176 19.3545 6.92125 19.3475C6.66625 19.3475 6.41125 19.3325 6.15625 19.3025C7.58125 20.2175 9.27625 20.75 11.0912 20.75C17.0013 20.75 20.2488 15.845 20.2488 11.5925C20.2488 11.45 20.2487 11.315 20.2412 11.1725C20.8712 10.7225 21.4112 10.1525 21.8462 9.5Z" fill="#113D6B"/>
</svg>
