<svg width="28" height="28" viewBox="0 0 28 28" fill="none" xmlns="http://www.w3.org/2000/svg">
<circle cx="14" cy="14" r="14" fill="white"/>
<path fill-rule="evenodd" clip-rule="evenodd" d="M21.2742 11.0276C21.204 10.4947 21.0005 9.98804 20.6825 9.55464C20.2883 9.15763 19.7539 8.9316 19.1945 8.92539C17.1192 8.77539 14 8.77539 14 8.77539C14 8.77539 10.8822 8.77539 8.80397 8.92539C8.24484 8.93179 7.71066 9.15781 7.31672 9.55464C6.99657 9.98721 6.79259 10.4946 6.72422 11.0284C6.63131 11.8266 6.58124 12.6293 6.57422 13.4329V14.5579C6.58124 15.3615 6.63131 16.1641 6.72422 16.9624C6.79472 17.4964 6.99722 18.0049 7.31222 18.4414C7.76522 18.8434 8.34722 19.0691 8.95247 19.0774C10.1397 19.1906 14.0007 19.2274 14.0007 19.2274C14.0007 19.2274 17.1215 19.2274 19.1967 19.0774C19.7565 19.0712 20.2913 18.8449 20.6855 18.4474C21.0019 18.013 21.2048 17.5064 21.2757 16.9736C21.3686 16.1754 21.4187 15.3727 21.4257 14.5691V13.4321C21.4168 12.6286 21.3662 11.826 21.2742 11.0276ZM12.5052 15.9431V11.7281L16.5552 13.8424L12.5052 15.9431Z" fill="#113D6B"/>
</svg>
